<?xml version="1.0" standalone="no"?>
<!DOCTYPE svg PUBLIC "-//W3C//DTD SVG 20010904//EN"
 "http://www.w3.org/TR/2001/REC-SVG-20010904/DTD/svg10.dtd">
<svg version="1.0" xmlns="http://www.w3.org/2000/svg"
 width="260.000000pt" height="260.000000pt" viewBox="0 0 260.000000 260.000000"
 preserveAspectRatio="xMidYMid meet">
<metadata>
Created by potrace 1.11, written by Peter Selinger 2001-2013
</metadata>
<g transform="translate(0.000000,260.000000) scale(0.100000,-0.100000)"
fill="#000000" stroke="none">
<path d="M305 2582 c-120 -42 -214 -125 -268 -240 l-32 -67 -3 -952 c-2 -938
-2 -953 18 -1014 51 -152 167 -257 321 -294 96 -22 1822 -22 1918 0 154 37
270 142 321 294 20 61 20 76 18 1014 l-3 953 -37 75 c-46 93 -122 168 -215
212 l-68 32 -960 2 c-891 2 -964 1 -1010 -15z m1003 -684 c17 -14 15 -63 -4
-82 -10 -11 -34 -16 -69 -16 -29 0 -61 -3 -69 -6 -39 -15 -41 -36 -46 -524 -5
-459 -6 -477 -27 -522 -17 -38 -28 -48 -57 -56 -49 -14 -95 0 -134 41 -21 21
-113 201 -272 532 -133 275 -245 504 -251 510 -6 6 -9 -142 -7 -445 3 -491 3
-485 57 -510 15 -7 48 -9 87 -5 60 7 63 6 80 -20 16 -25 16 -30 3 -54 -19 -34
-52 -39 -164 -24 -69 9 -122 9 -227 1 -162 -14 -192 -8 -196 37 -4 52 8 59 95
57 73 -2 81 -1 103 23 24 25 25 34 33 223 11 269 0 668 -19 705 -20 37 -55 49
-125 41 -41 -5 -63 -3 -74 6 -21 18 -20 77 2 88 10 5 110 10 222 10 176 0 205
-2 217 -17 8 -9 128 -252 267 -540 l252 -525 3 448 c2 392 0 452 -14 481 -19
41 -60 57 -124 49 -64 -8 -90 6 -90 51 0 52 21 59 154 49 115 -9 198 -7 276 6
49 9 98 3 118 -12z m968 -21 c103 -48 155 -116 169 -223 14 -104 -37 -194
-143 -252 l-63 -35 56 -22 c160 -66 228 -167 210 -318 -13 -117 -76 -207 -185
-262 -99 -50 -144 -55 -538 -51 -394 3 -382 1 -382 58 0 38 28 50 99 42 67 -7
94 3 116 46 22 43 22 857 0 900 -22 43 -49 53 -116 46 -72 -8 -99 3 -99 44 0
56 -7 55 421 55 l394 0 61 -28z"/>
<path d="M1851 1799 c-24 -4 -49 -14 -57 -20 -27 -22 -36 -84 -33 -213 5 -163
-3 -156 178 -156 257 0 355 58 355 210 1 95 -53 157 -155 179 -58 13 -224 13
-288 0z"/>
<path d="M1803 1290 c-38 -15 -43 -42 -43 -209 0 -259 7 -266 240 -266 167 1
229 18 294 81 66 64 84 194 38 283 -25 47 -83 87 -157 106 -66 17 -334 20
-372 5z"/>
</g>
</svg>
